<svg width="16" height="19" viewBox="0 0 16 19" fill="none" xmlns="http://www.w3.org/2000/svg">
<path d="M7 18C7 18.5523 7.44772 19 8 19C8.55228 19 9 18.5523 9 18L7 18ZM8.70711 0.292893C8.31658 -0.0976311 7.68342 -0.0976311 7.29289 0.292893L0.928932 6.65685C0.538407 7.04738 0.538407 7.68054 0.928932 8.07107C1.31946 8.46159 1.95262 8.46159 2.34315 8.07107L8 2.41421L13.6569 8.07107C14.0474 8.46159 14.6805 8.46159 15.0711 8.07107C15.4616 7.68054 15.4616 7.04738 15.0711 6.65685L8.70711 0.292893ZM9 18L9 8.5L7 8.5L7 18L9 18ZM9 8.5L9 1L7 1L7 8.5L9 8.5Z" fill="white"/>
</svg>
