<svg width="24" height="24" viewBox="0 0 24 24" fill="none" xmlns="http://www.w3.org/2000/svg">
<path d="M22.342 12L13.25 21.0473C11.9936 22.2976 10.2894 23 8.51246 23C4.81218 23 1.8125 20.0151 1.8125 16.3331C1.8125 14.5648 2.51839 12.869 3.77487 11.6187L13.1378 2.30182C13.9755 1.46827 15.1116 1 16.2962 1C18.7631 1 20.7628 2.98995 20.7628 5.44468C20.7628 6.62347 20.2922 7.75398 19.4546 8.58753L10.3626 17.6348C9.94377 18.0516 9.37572 18.2857 8.7834 18.2857C7.54997 18.2857 6.55008 17.2907 6.55008 16.0634C6.55008 15.474 6.78538 14.9087 7.2042 14.492L16.0253 5.71429" stroke="#EE623F" stroke-width="2"/>
</svg>
