<svg width="192" height="188" viewBox="0 0 192 188" fill="none" xmlns="http://www.w3.org/2000/svg">
<g opacity="0.7">
<mask id="mask0_166_709" style="mask-type:alpha" maskUnits="userSpaceOnUse" x="0" y="0" width="192" height="189">
<g opacity="0.7">
<path d="M191.579 0H0V188.005H191.579V0Z" fill="#D9D9D9"/>
</g>
</mask>
<g mask="url(#mask0_166_709)">
<path d="M129.533 158.672C117.62 146.772 110.912 129.401 107.903 109.428C103.662 81.3838 103.805 50.6033 93.1266 28.1696C90.3884 22.698 86.9654 17.9106 82.7205 13.6705C70.6706 1.6341 53.0046 -5.06597 33.0097 -8.07194C18.6297 -10.1213 3.56479 -11.213 -10.6782 -13.1256L-11.2262 -12.5783C3.1538 -10.5289 18.3557 -9.57406 32.8725 -7.3879C52.8676 -4.38193 70.3967 2.45496 82.1727 14.2178C86.2806 18.3212 89.7035 23.1086 92.3048 28.4434C102.983 50.6034 102.704 81.2473 107.081 109.428C110.09 129.401 116.935 147.184 128.847 159.083C133.093 163.323 137.885 166.742 143.363 169.478C164.589 179.733 193.624 180.002 220.603 183.691L221.151 183.144C193.899 179.454 164.864 179.187 143.637 168.93C138.433 166.195 133.641 162.775 129.533 158.672Z" fill="#EE623F"/>
<path d="M189.115 124.05C186.376 118.579 182.953 113.791 178.709 109.551C166.659 97.515 148.993 90.8149 128.997 87.8089C100.649 83.5733 70.1078 83.7156 47.9228 73.0492C42.5821 70.4509 37.7893 67.0317 33.6813 62.9284C21.7684 51.0288 15.0608 33.6562 12.0514 13.6835C9.72591 -0.953918 8.77003 -16.1389 6.71834 -30.5027L6.17041 -29.9553C8.08517 -15.7283 9.0411 -0.816988 11.2297 13.6836C14.2391 33.6563 21.0835 51.4393 32.9965 63.339C37.2413 67.5791 42.0341 70.9983 47.5119 73.7332C69.8337 84.5365 100.649 84.3941 128.861 88.493C148.856 91.499 166.384 98.3359 178.161 110.099C182.269 114.202 185.692 118.989 188.43 124.461C198.697 145.663 198.966 174.666 202.659 201.888L203.207 201.342C199.515 174.118 199.382 145.253 189.115 124.05Z" fill="#EE623F"/>
<path d="M93.2602 57.0348L75.5896 74.6856L76.0004 75.0959L93.671 57.4451L93.2602 57.0348Z" fill="#EE623F"/>
<path d="M94.6267 68.2526L86.6817 76.1886L87.0926 76.5989L95.0375 68.6629L94.6267 68.2526Z" fill="#EE623F"/>
<path d="M90.7988 42.5347L62.3068 70.9949L62.7175 71.4052L91.2096 42.945L90.7988 42.5347Z" fill="#EE623F"/>
<path d="M83.9521 32.4123L50.5288 65.7984L50.9396 66.2087L84.3629 32.8227L83.9521 32.4123Z" fill="#EE623F"/>
<path d="M78.8864 20.5116L41.3536 58.0023L41.7644 58.4126L79.2971 20.9219L78.8864 20.5116Z" fill="#EE623F"/>
<path d="M69.572 12.8521L31.9022 50.4798L32.313 50.8901L69.9827 13.2625L69.572 12.8521Z" fill="#EE623F"/>
<path d="M56.5651 8.88742L28.347 37.074L28.7578 37.4843L56.9759 9.29775L56.5651 8.88742Z" fill="#EE623F"/>
<path d="M43.5522 4.92258L24.6489 23.8048L25.0597 24.2152L43.9631 5.33291L43.5522 4.92258Z" fill="#EE623F"/>
<path d="M31.7786 -0.000211716L20.2722 11.4933L20.6829 11.9037L32.1894 0.410121L31.7786 -0.000211716Z" fill="#EE623F"/>
<path d="M93.1251 55.2566C92.4402 55.9407 92.44 57.0352 93.1247 57.719C93.8093 58.4029 94.905 58.4028 95.5899 57.7185C96.2747 57.0344 96.275 55.94 95.5904 55.2561L95.4533 55.393L95.3164 55.5298C95.7272 55.9401 95.727 56.761 95.316 57.1714C94.9051 57.5819 94.0834 57.582 93.6725 57.1717C93.2617 56.7614 93.262 55.9406 93.6729 55.5302C94.0838 55.1196 94.9056 55.1195 95.3164 55.5298L95.4533 55.393L95.5904 55.2561C94.9056 54.5722 93.8101 54.5725 93.1251 55.2566Z" fill="#EE623F"/>
<path d="M85.3142 75.9153C84.7662 76.4626 84.7661 77.2834 85.3138 77.8306C85.8615 78.3777 86.6832 78.3774 87.2312 77.8302C87.7791 77.2829 87.7792 76.4621 87.2315 75.9149L87.0945 76.0518L86.9576 76.1886C87.2314 76.4621 87.2313 77.0093 86.9573 77.283C86.6833 77.5567 86.1356 77.5568 85.8618 77.2833C85.5878 77.0097 85.5879 76.4625 85.8619 76.1888C86.1359 75.9151 86.6837 75.915 86.9576 76.1886L87.0945 76.0518L87.2315 75.9149C86.8208 75.5046 85.862 75.3679 85.3142 75.9153Z" fill="#EE623F"/>
<path d="M60.9342 70.9947C60.3863 71.5421 60.3861 72.3628 60.9338 72.9099C61.4816 73.457 62.3032 73.4569 62.8512 72.9096C63.3991 72.3623 63.3993 71.5414 62.8516 70.9944L62.7145 71.1311L62.5776 71.268C62.8514 71.5416 62.8513 72.0888 62.5773 72.3625C62.3035 72.6361 61.7557 72.6361 61.4818 72.3626C61.208 72.089 61.208 71.5418 61.4819 71.2682C61.7559 70.9946 62.3037 70.9945 62.5776 71.268L62.7145 71.1311L62.8516 70.9944C62.3039 70.4473 61.4821 70.4474 60.9342 70.9947Z" fill="#EE623F"/>
<path d="M27.3889 36.9371C26.8411 37.4844 26.8409 38.3052 27.3887 38.8523C27.9364 39.3994 28.7581 39.3992 29.306 38.8519C29.8539 38.3047 29.8541 37.4838 29.3064 36.9367L29.1694 37.0736L29.0324 37.2104C29.3063 37.4839 29.3062 38.0311 29.0322 38.3048C28.7582 38.5785 28.2104 38.5786 27.9365 38.3049C27.6627 38.0314 27.6628 37.4842 27.9368 37.2106C28.2107 36.9369 28.7586 36.9368 29.0324 37.2104L29.1694 37.0736C28.6217 36.5264 27.8 36.5266 27.3889 36.9371Z" fill="#EE623F"/>
<path d="M19.0378 11.3568C18.4898 11.9041 18.4897 12.7249 19.0374 13.272C19.5851 13.8191 20.4069 13.819 20.9549 13.2717C21.5027 12.7243 21.5029 11.9035 20.9552 11.3564L20.8182 11.4932L20.6812 11.6301C20.9552 11.9036 20.955 12.4508 20.681 12.7244C20.4071 12.9981 19.8592 12.9982 19.5854 12.7247C19.3115 12.4511 19.3117 11.9039 19.5856 11.6303C19.8595 11.3566 20.4073 11.3565 20.6812 11.6301L20.8182 11.4932L20.9552 11.3564C20.4074 10.8093 19.5858 10.8095 19.0378 11.3568Z" fill="#EE623F"/>
<path d="M84.0882 29.8133C83.2664 30.6343 83.2661 32.0023 84.0877 32.8229C84.9092 33.6435 86.2787 33.6433 87.1007 32.8224C87.9226 32.0014 87.9229 30.6334 87.1012 29.8128L86.9643 29.9495L86.8273 30.0863C87.512 30.7703 87.3748 31.7278 86.8268 32.2752C86.1419 32.9593 85.1833 32.8226 84.6356 32.2756C83.9509 31.5917 84.088 30.634 84.636 30.0868C85.3209 29.4026 86.2795 29.5392 86.8273 30.0863L86.9643 29.9495L87.1012 29.8128C86.2796 28.992 84.9101 28.9922 84.0882 29.8133Z" fill="#EE623F"/>
<path d="M39.1584 58.0025C38.4735 58.6867 38.3363 59.918 39.1579 60.7386L39.2949 60.6019L39.4319 60.465C38.8842 59.9179 38.8843 59.0971 39.4322 58.5498C39.9802 58.0024 40.8019 58.0023 41.3496 58.5494C41.8974 59.0965 41.8972 59.9174 41.3493 60.4646C40.8014 61.0119 39.9796 61.0121 39.4319 60.465L39.2949 60.6019L39.1579 60.7386C39.8426 61.4225 41.0752 61.5592 41.897 60.7381C42.5819 60.054 42.7191 58.8228 41.8975 58.002C41.076 57.1814 39.8434 57.3184 39.1584 58.0025Z" fill="#EE623F"/>
<path d="M43.2859 2.46016C42.601 3.14429 42.4638 4.37554 43.2854 5.1962L43.5594 4.92256L43.6964 4.78572C43.1486 4.23862 43.1488 3.4178 43.6967 2.87049C44.2446 2.32319 45.0663 2.32302 45.6141 2.87014C46.1618 3.41725 46.1617 4.23806 45.6138 4.78537C45.0658 5.33269 44.2441 5.33284 43.6964 4.78572L43.5594 4.92256L43.4224 5.05938C44.1071 5.74326 45.3397 5.87984 46.1615 5.05888C46.8465 4.37473 46.9837 3.14348 46.162 2.32282C45.3404 1.77577 44.1078 1.63919 43.2859 2.46016Z" fill="#EE623F"/>
<path d="M69.5779 10.9369C68.893 11.621 68.7558 12.8523 69.5774 13.6729L69.7143 13.5361L69.8514 13.3992C69.3036 12.8521 69.3038 12.0314 69.8517 11.484C70.3996 10.9367 71.2214 10.9366 71.7691 11.4837C72.3168 12.0308 72.3167 12.8516 71.7687 13.399C71.2207 13.9462 70.3991 13.9464 69.8514 13.3992L69.7143 13.5361L69.5774 13.6729C70.262 14.3569 71.4946 14.4934 72.3164 13.6724C73.0014 12.9883 73.1386 11.7571 72.3169 10.9364C71.4954 10.1157 70.2628 10.2527 69.5779 10.9369Z" fill="#EE623F"/>
<path d="M74.0838 74.5493C73.536 75.0967 73.5358 75.9176 74.0835 76.4646C74.6313 77.0117 75.453 77.0116 76.0009 76.4643C76.5488 75.9169 76.549 75.0962 76.0013 74.5491C75.4535 74.0018 74.6318 74.0021 74.0838 74.5493Z" fill="#EE623F"/>
<path d="M94.3546 67.4317C94.0808 67.7054 94.0806 68.2526 94.3545 68.5261C94.6283 68.7997 95.1762 68.7995 95.4502 68.5259C95.7241 68.2522 95.7241 67.705 95.4503 67.4314C95.3135 67.0211 94.7657 67.0211 94.3546 67.4317Z" fill="#EE623F"/>
<path d="M33.2756 51.574C33.8051 51.0449 33.8053 50.1874 33.2759 49.6586C32.7466 49.1298 31.8882 49.1301 31.3585 49.659C30.829 50.1881 30.8288 51.0455 31.3581 51.5742C31.8875 52.103 32.746 52.1029 33.2756 51.574Z" fill="#EE623F"/>
<path d="M90.5222 41.1666C89.9742 41.7139 89.9741 42.5347 90.5218 43.0818C91.0695 43.6289 91.8913 43.6287 92.4392 43.0814C92.9871 42.5342 92.9873 41.7133 92.4396 41.1662C91.8918 40.6191 91.0702 40.6192 90.5222 41.1666Z" fill="#EE623F"/>
<path d="M78.3446 19.9647C77.7966 20.5121 77.7965 21.3328 78.3442 21.8799C78.8919 22.4271 79.7136 22.4269 80.2616 21.8797C80.8095 21.3323 80.8096 20.5114 80.2619 19.9643C79.7142 19.4172 78.8924 19.4174 78.3446 19.9647Z" fill="#EE623F"/>
<path d="M23.829 22.7106C23.281 23.258 23.2809 24.0788 23.8286 24.6259C24.3763 25.1729 25.198 25.1728 25.7459 24.6255C26.2939 24.0783 26.294 23.2574 25.7463 22.7103C25.3355 22.3 24.3768 22.1633 23.829 22.7106Z" fill="#EE623F"/>
<path d="M31.5026 -0.547311C31.2287 -0.273655 31.2287 0.273551 31.5025 0.547106C31.7764 0.82066 32.3242 0.820562 32.5982 0.546907C32.872 0.273251 32.8722 -0.273961 32.5983 -0.547516C32.3245 -0.82107 31.7766 -0.820966 31.5026 -0.547311Z" fill="#EE623F"/>
<path d="M56.5624 7.24562C56.0146 7.79294 56.0143 8.61375 56.5622 9.16086C57.1099 9.70796 57.9316 9.70781 58.4795 9.16051C59.0275 8.6132 59.0276 7.79238 58.4799 7.24528C58.069 6.83495 57.1104 6.69831 56.5624 7.24562Z" fill="#EE623F"/>
<path d="M49.8456 65.9351C49.5716 66.2088 49.5716 66.756 49.8455 67.0296C50.1193 67.3031 50.6672 67.3031 50.941 67.0294C51.215 66.7558 51.2151 66.2085 50.9413 65.935C50.6674 65.6615 50.1196 65.6616 49.8456 65.9351Z" fill="#EE623F"/>
<path d="M137.491 98.4782L119.82 116.129L120.231 116.539L137.901 98.8885L137.491 98.4782Z" fill="#EE623F"/>
<path d="M126.255 97.1122L118.31 105.048L118.721 105.459L126.666 97.5225L126.255 97.1122Z" fill="#EE623F"/>
<path d="M150.774 102.169L122.282 130.63L122.693 131.04L151.185 102.579L150.774 102.169Z" fill="#EE623F"/>
<path d="M162.28 107.365L128.857 140.751L129.268 141.161L162.691 107.776L162.28 107.365Z" fill="#EE623F"/>
<path d="M171.45 115.162L133.917 152.652L134.328 153.062L171.86 115.572L171.45 115.162Z" fill="#EE623F"/>
<path d="M181.036 122.547L143.366 160.175L143.776 160.585L181.446 122.957L181.036 122.547Z" fill="#EE623F"/>
<path d="M184.595 135.953L156.378 164.14L156.788 164.55L185.006 136.363L184.595 135.953Z" fill="#EE623F"/>
<path d="M188.295 149.223L169.392 168.105L169.803 168.515L188.706 149.633L188.295 149.223Z" fill="#EE623F"/>
<path d="M192.671 161.807L181.165 173.301L181.575 173.711L193.081 162.217L192.671 161.807Z" fill="#EE623F"/>
<path d="M117.902 115.855C117.217 116.54 117.217 117.634 117.902 118.318L118.039 118.181L118.313 117.907C117.902 117.497 117.902 116.676 118.313 116.266C118.724 115.855 119.546 115.855 119.957 116.266C120.367 116.676 120.367 117.497 119.956 117.907C119.545 118.318 118.724 118.318 118.313 117.907L118.176 118.044L118.039 118.181C118.723 118.865 119.819 118.865 120.504 118.181C121.189 117.496 121.189 116.402 120.504 115.718C119.546 115.308 118.587 115.171 117.902 115.855Z" fill="#EE623F"/>
<path d="M126.12 95.6073C125.572 96.1547 125.572 96.9754 126.12 97.5225L126.257 97.3858L126.394 97.249C126.12 96.9754 126.12 96.4282 126.394 96.1546C126.668 95.8809 127.215 95.8808 127.489 96.1543C127.763 96.4278 127.763 96.9751 127.489 97.2487C127.215 97.5224 126.667 97.5225 126.394 97.249L126.257 97.3858L126.12 97.5225C126.667 98.0698 127.489 98.0695 128.037 97.5223C128.584 96.9749 128.586 96.1542 128.037 95.607C127.489 95.0599 126.668 95.06 126.12 95.6073Z" fill="#EE623F"/>
<path d="M150.635 100.664C150.087 101.212 150.087 102.033 150.635 102.58L150.772 102.443L150.909 102.306C150.635 102.032 150.635 101.485 150.909 101.212C151.184 100.938 151.732 100.938 152.005 101.211C152.279 101.485 152.279 102.032 152.005 102.306C151.731 102.579 151.184 102.579 150.909 102.306L150.772 102.443L150.635 102.58C151.184 103.127 152.005 103.127 152.553 102.579C153.101 102.032 153.101 101.211 152.553 100.664C151.868 100.254 151.047 100.254 150.635 100.664Z" fill="#EE623F"/>
<path d="M184.321 134.859C183.773 135.407 183.773 136.227 184.321 136.774L184.458 136.637L184.595 136.501C184.321 136.227 184.321 135.679 184.595 135.407C184.869 135.133 185.418 135.133 185.691 135.405C185.965 135.679 185.965 136.227 185.691 136.501C185.416 136.774 184.869 136.774 184.595 136.501L184.458 136.637L184.321 136.774C184.869 137.321 185.691 137.321 186.239 136.774C186.787 136.227 186.787 135.405 186.239 134.859C185.692 134.311 184.869 134.311 184.321 134.859Z" fill="#EE623F"/>
<path d="M126.251 140.615C125.429 141.437 125.429 142.804 126.25 143.626L126.388 143.488L126.524 143.352C125.84 142.668 125.977 141.71 126.525 141.163C127.21 140.479 128.169 140.615 128.716 141.163C129.4 141.847 129.264 142.804 128.716 143.351C128.031 144.036 127.072 143.898 126.524 143.352L126.388 143.488L126.25 143.626C127.072 144.446 128.442 144.446 129.264 143.624C130.085 142.803 130.085 141.435 129.264 140.615C128.579 139.657 127.072 139.795 126.251 140.615Z" fill="#EE623F"/>
<path d="M171.587 112.836C170.903 113.52 170.765 114.751 171.587 115.572C172.408 116.393 173.505 116.392 174.326 115.571C175.012 114.887 175.148 113.656 174.327 112.835L174.189 112.972L173.915 113.246C174.464 113.793 174.464 114.614 173.915 115.161C173.367 115.708 172.546 115.709 171.998 115.161C171.451 114.614 171.451 113.794 171.999 113.246C172.546 112.699 173.368 112.699 173.915 113.246L174.053 113.109L174.189 112.972C173.642 112.151 172.273 112.152 171.587 112.836Z" fill="#EE623F"/>
<path d="M167.192 168.379C166.507 169.062 166.369 170.294 167.19 171.114C167.875 171.798 169.108 171.935 169.93 171.114C170.615 170.43 170.752 169.199 169.93 168.379L169.794 168.515L169.656 168.651C170.204 169.199 170.204 170.02 169.656 170.566C169.108 171.114 168.287 171.114 167.739 170.568C167.192 170.02 167.192 169.199 167.739 168.652C168.287 168.105 169.109 168.105 169.656 168.651L169.794 168.515L169.93 168.379C169.245 167.695 168.013 167.557 167.192 168.379Z" fill="#EE623F"/>
<path d="M141.173 159.901C140.488 160.586 140.351 161.816 141.173 162.638C141.858 163.322 143.091 163.458 143.912 162.638C144.596 161.953 144.734 160.721 143.913 159.901L143.775 160.037L143.639 160.175C144.186 160.722 144.186 161.542 143.637 162.09C143.091 162.638 142.268 162.638 141.721 162.09C141.173 161.544 141.173 160.722 141.721 160.175C142.269 159.627 143.091 159.627 143.639 160.175L143.775 160.037L143.913 159.901C143.228 159.217 141.858 159.217 141.173 159.901Z" fill="#EE623F"/>
<path d="M139.267 98.8881C139.797 98.3591 139.797 97.5016 139.268 96.9729C138.738 96.4441 137.88 96.4442 137.351 96.9732C136.82 97.5022 136.82 98.3597 137.349 98.8885C137.879 99.4172 138.738 99.417 139.267 98.8881Z" fill="#EE623F"/>
<path d="M117.765 105.048C117.491 105.322 117.491 105.869 117.765 106.143C118.039 106.416 118.587 106.416 118.861 106.142C119.134 105.869 119.134 105.321 118.861 105.048C118.724 104.638 118.176 104.638 117.765 105.048Z" fill="#EE623F"/>
<path d="M180.081 121.863C179.533 122.411 179.533 123.231 180.081 123.779C180.628 124.326 181.45 124.326 181.997 123.778C182.545 123.231 182.545 122.41 181.998 121.863C181.45 121.316 180.629 121.316 180.081 121.863Z" fill="#EE623F"/>
<path d="M120.909 130.356C120.362 130.904 120.361 131.725 120.909 132.271C121.457 132.819 122.279 132.819 122.827 132.271C123.375 131.724 123.375 130.904 122.827 130.356C122.279 129.808 121.457 129.808 120.909 130.356Z" fill="#EE623F"/>
<path d="M135.011 153.474C135.541 152.944 135.542 152.087 135.011 151.558C134.482 151.03 133.624 151.03 133.095 151.558C132.565 152.087 132.565 152.945 133.094 153.474C133.623 154.002 134.482 154.002 135.011 153.474Z" fill="#EE623F"/>
<path d="M187.603 148.811C187.055 149.359 187.055 150.18 187.603 150.727C188.15 151.274 188.972 151.274 189.52 150.727C190.067 150.179 190.067 149.359 189.52 148.811C188.972 148.265 188.151 148.265 187.603 148.811Z" fill="#EE623F"/>
<path d="M180.896 173.028C180.621 173.301 180.621 173.848 180.896 174.122C181.17 174.396 181.718 174.396 181.991 174.122C182.265 173.848 182.265 173.301 181.992 173.027C181.58 172.617 181.17 172.754 180.896 173.028Z" fill="#EE623F"/>
<path d="M156.788 166.192C157.319 165.663 157.319 164.805 156.789 164.277C156.26 163.748 155.401 163.748 154.872 164.277C154.343 164.805 154.341 165.663 154.871 166.192C155.401 166.721 156.259 166.721 156.788 166.192Z" fill="#EE623F"/>
<path d="M162.412 106.408C162.138 106.682 162.138 107.229 162.412 107.502C162.686 107.776 163.234 107.776 163.508 107.502C163.781 107.229 163.782 106.681 163.508 106.408C163.234 106.134 162.686 106.134 162.412 106.408Z" fill="#EE623F"/>
<path d="M12.3274 12.8629C12.8569 12.3338 12.857 11.4763 12.3277 10.9476C11.7984 10.4188 10.9399 10.4189 10.4103 10.9479C9.88077 11.4769 9.88062 12.3344 10.41 12.8631C10.9394 13.3919 11.7978 13.3918 12.3274 12.8629Z" fill="#EE623F"/>
<path d="M11.6414 17.1037C11.0935 17.6511 11.0933 18.4718 11.6411 19.0189C12.1888 19.566 13.0105 19.5659 13.5585 19.0185C14.1064 18.4713 14.1066 17.6504 13.5589 17.1033C13.1479 16.693 12.1894 16.5564 11.6414 17.1037Z" fill="#EE623F"/>
<path d="M63.9466 80.0233C64.4761 79.4943 64.4764 78.6369 63.947 78.1081C63.4176 77.5793 62.5592 77.5794 62.0297 78.1084C61.5 78.6374 61.4999 79.4948 62.0293 80.0236C62.5587 80.5524 63.4171 80.5523 63.9466 80.0233Z" fill="#EE623F"/>
<path d="M54.0884 75.1001C52.9926 76.1948 52.9923 78.11 54.0877 79.2041C55.1831 80.2983 57.1006 80.2981 58.1964 79.2034C59.2923 78.1088 59.2925 76.1935 58.1971 75.0993C57.1017 74.0051 55.1844 74.0055 54.0884 75.1001Z" fill="#EE623F"/>
<path d="M131.055 86.851C129.959 87.9455 129.959 89.8608 131.054 90.955C132.149 92.0492 134.067 92.0488 135.163 90.9543C136.258 89.8596 136.259 87.9444 135.163 86.8502C134.068 85.756 132.15 85.7563 131.055 86.851Z" fill="#EE623F"/>
<path d="M102.707 61.2741C103.237 60.7452 103.237 59.8877 102.708 59.3589C102.178 58.8301 101.32 58.8304 100.79 59.3593C100.261 59.8882 100.261 60.7457 100.79 61.2745C101.319 61.8033 102.178 61.8032 102.707 61.2741Z" fill="#EE623F"/>
<path d="M100.934 49.6464C101.463 49.1173 101.463 48.2598 100.934 47.731C100.404 47.2023 99.5459 47.2025 99.0164 47.7314C98.4869 48.2604 98.4867 49.1178 99.016 49.6466C99.5454 50.1754 100.404 50.1753 100.934 49.6464Z" fill="#EE623F"/>
<path d="M104.757 92.8751C104.21 93.4225 104.209 94.2433 104.757 94.7904C105.305 95.3374 106.126 95.3373 106.674 94.7901C107.222 94.2427 107.223 93.4219 106.675 92.8748C106.127 92.3277 105.305 92.3278 104.757 92.8751Z" fill="#EE623F"/>
<path d="M118.166 144.311C117.618 144.857 117.618 145.679 118.166 146.226C118.713 146.772 119.535 146.772 120.083 146.225C120.631 145.677 120.631 144.857 120.084 144.31C119.673 143.626 118.714 143.763 118.166 144.311Z" fill="#EE623F"/>
<path d="M122.686 149.918C123.216 149.389 123.216 148.533 122.686 148.003C122.157 147.474 121.299 147.475 120.769 148.004C120.239 148.533 120.239 149.391 120.769 149.919C121.298 150.448 122.156 150.448 122.686 149.918Z" fill="#EE623F"/>
<path d="M128.027 157.989C128.557 157.459 128.557 156.603 128.027 156.074C127.498 155.545 126.639 155.545 126.11 156.074C125.581 156.603 125.58 157.461 126.11 157.989C126.639 158.518 127.498 158.518 128.027 157.989Z" fill="#EE623F"/>
<path d="M11.9178 7.52734C12.4474 6.99837 12.4475 6.14088 11.9182 5.6121C11.3888 5.08333 10.5304 5.08348 10.0008 5.61245C9.47123 6.14143 9.47107 6.99891 10.0004 7.52769C10.5298 8.05648 11.3882 8.05631 11.9178 7.52734Z" fill="#EE623F"/>
<path d="M12.8725 23.5331C12.3246 24.0803 12.3245 24.9012 12.8722 25.4483C13.4199 25.9954 14.2416 25.9952 14.7896 25.4479C15.3375 24.9005 15.3377 24.0798 14.79 23.5327C14.3792 22.8487 13.4204 22.9857 12.8725 23.5331Z" fill="#EE623F"/>
<path d="M49.9777 73.1858C49.4299 73.7331 49.4298 74.5539 49.9775 75.101C50.5252 75.6481 51.3469 75.6479 51.8948 75.1006C52.4428 74.5534 52.4429 73.7325 51.8952 73.1854C51.3475 72.6383 50.5257 72.6384 49.9777 73.1858Z" fill="#EE623F"/>
<path d="M99.8356 43.9008C100.365 43.3719 100.365 42.5144 99.8359 41.9856C99.3066 41.4568 98.4481 41.4569 97.9186 41.9859C97.389 42.5149 97.3888 43.3724 97.9182 43.9011C98.4476 44.4299 99.306 44.4297 99.8356 43.9008Z" fill="#EE623F"/>
<path d="M102.024 54.8445C102.554 54.3155 102.554 53.458 102.024 52.9292C101.495 52.4005 100.636 52.4006 100.107 52.9296C99.5772 53.4586 99.5771 54.3161 100.107 54.8448C100.636 55.3736 101.494 55.3734 102.024 54.8445Z" fill="#EE623F"/>
<path d="M105.034 97.5265C104.486 98.0737 104.486 98.8946 105.033 99.4417C105.581 99.9887 106.403 99.9886 106.951 99.4413C107.499 98.8939 107.499 98.0732 106.951 97.5261C106.54 96.8421 105.582 96.9791 105.034 97.5265Z" fill="#EE623F"/>
<path d="M123.51 152.381C122.962 152.929 122.962 153.749 123.51 154.296C124.057 154.843 124.879 154.843 125.427 154.296C125.975 153.749 125.975 152.927 125.427 152.381C124.879 151.833 124.058 151.833 123.51 152.381Z" fill="#EE623F"/>
<path d="M128.987 158.946C128.439 159.493 128.439 160.315 128.986 160.861C129.534 161.409 130.355 161.409 130.904 160.861C131.452 160.314 131.452 159.493 130.904 158.946C130.493 158.262 129.534 158.399 128.987 158.946Z" fill="#EE623F"/>
<path d="M164.39 50.0438V49.8182H150.839L144.064 61.7699L150.839 73.4959H164.615L171.39 61.7699L164.615 49.8182H164.39V50.0438L164.164 50.2693L170.938 61.7699L164.39 73.0448H151.065L144.515 61.7699L151.065 50.2693H164.39V50.0438Z" fill="#EE623F"/>
<path d="M164.385 74.3979C165.009 74.3979 165.514 73.8932 165.514 73.2704C165.514 72.6477 165.009 72.1429 164.385 72.1429C163.761 72.1429 163.256 72.6477 163.256 73.2704C163.256 73.8932 163.761 74.3979 164.385 74.3979Z" fill="#EE623F"/>
<path d="M154.675 74.3977C155.298 74.3977 155.804 73.8928 155.804 73.2702C155.804 72.6475 155.298 72.1427 154.675 72.1427C154.051 72.1427 153.546 72.6475 153.546 73.2702C153.546 73.8928 154.051 74.3977 154.675 74.3977Z" fill="#EE623F"/>
<path d="M150.836 75.2997C149.707 75.2997 148.804 74.3977 148.804 73.2702C148.804 72.1427 149.707 71.2406 150.836 71.2406C151.965 71.2406 152.869 72.1427 152.869 73.2702C152.869 74.3977 151.965 75.2997 150.836 75.2997ZM150.836 71.4661C149.933 71.4661 149.255 72.1427 149.255 73.0447C149.255 73.9466 149.933 74.6231 150.836 74.6231C151.739 74.6231 152.416 73.9466 152.416 73.0447C152.416 72.1427 151.739 71.4661 150.836 71.4661Z" fill="#EE623F"/>
<path d="M151.518 73.2703C151.518 72.8193 151.292 72.5937 150.84 72.5937C150.389 72.5937 150.163 72.8193 150.163 73.2703C150.163 73.7212 150.389 73.9467 150.84 73.9467C151.292 73.9467 151.518 73.4958 151.518 73.2703Z" fill="#EE623F"/>
<path d="M166.872 70.1134C167.496 70.1134 168.001 69.6087 168.001 68.9859C168.001 68.3632 167.496 67.8584 166.872 67.8584C166.248 67.8584 165.743 68.3632 165.743 68.9859C165.743 69.6087 166.248 70.1134 166.872 70.1134Z" fill="#EE623F"/>
<path d="M143.837 61.3188H120.802V61.7697H143.837V61.3188Z" fill="#EE623F"/>
<path d="M119.447 62.8975C120.125 63.5739 121.48 63.5739 122.157 62.8975C122.835 62.2209 122.835 60.868 122.157 60.1914C121.48 59.515 120.125 59.515 119.447 60.1914C118.77 61.0934 118.77 62.2209 119.447 62.8975Z" fill="#EE623F"/>
<path d="M143.835 62.6719C144.457 62.6719 144.963 62.1671 144.963 61.5444C144.963 60.9216 144.457 60.4168 143.835 60.4168C143.211 60.4168 142.705 60.9216 142.705 61.5444C142.705 62.1671 143.211 62.6719 143.835 62.6719Z" fill="#EE623F"/>
<path d="M136.383 62.6719C137.007 62.6719 137.512 62.1671 137.512 61.5444C137.512 60.9216 137.007 60.4168 136.383 60.4168C135.759 60.4168 135.254 60.9216 135.254 61.5444C135.254 62.1671 135.759 62.6719 136.383 62.6719Z" fill="#EE623F"/>
<path d="M175.228 61.5445H165.743V61.9955H175.228V61.5445Z" fill="#EE623F"/>
<path d="M175.225 62.8976C175.849 62.8976 176.355 62.3928 176.355 61.77C176.355 61.1473 175.849 60.6425 175.225 60.6425C174.601 60.6425 174.096 61.1473 174.096 61.77C174.096 62.3928 174.601 62.8976 175.225 62.8976Z" fill="#EE623F"/>
<path d="M165.739 62.8976C166.363 62.8976 166.868 62.3928 166.868 61.77C166.868 61.1473 166.363 60.6425 165.739 60.6425C165.116 60.6425 164.61 61.1473 164.61 61.77C164.61 62.3928 165.116 62.8976 165.739 62.8976Z" fill="#EE623F"/>
<path d="M170.936 62.8976C171.558 62.8976 172.065 62.3928 172.065 61.77C172.065 61.1473 171.558 60.6425 170.936 60.6425C170.312 60.6425 169.806 61.1473 169.806 61.77C169.806 62.3928 170.312 62.8976 170.936 62.8976Z" fill="#EE623F"/>
<path d="M142.694 41.4674L142.374 41.7863L150.837 50.2373L151.157 49.9183L142.694 41.4674Z" fill="#EE623F"/>
<path d="M143.384 42.377C143.835 41.9259 143.835 41.2495 143.384 40.7984C142.931 40.3474 142.254 40.3474 141.802 40.7984C141.351 41.2495 141.351 41.9259 141.802 42.377C142.254 42.8279 142.931 42.8279 143.384 42.377Z" fill="#EE623F"/>
<path d="M151.969 50.946C152.42 50.495 152.42 49.8185 151.969 49.3675C151.517 48.9165 150.84 48.9165 150.388 49.3675C149.937 49.8185 149.937 50.495 150.388 50.946C150.614 51.3969 151.517 51.3969 151.969 50.946Z" fill="#EE623F"/>
<path d="M146.997 46.2103C147.45 45.7593 147.45 45.0828 146.997 44.6318C146.547 44.1808 145.868 44.1808 145.417 44.6318C144.965 45.0828 144.965 45.7593 145.417 46.2103C145.868 46.6613 146.547 46.6613 146.997 46.2103Z" fill="#EE623F"/>
<path d="M172.968 41.4401L164.664 49.7316L164.984 50.0505L173.288 41.759L172.968 41.4401Z" fill="#EE623F"/>
<path d="M172.291 42.3763C172.743 42.8273 173.42 42.8273 173.872 42.3763C174.323 41.9253 174.323 41.2488 173.872 40.7978C173.42 40.3468 172.743 40.3468 172.291 40.7978C171.84 41.0232 171.84 41.9253 172.291 42.3763Z" fill="#EE623F"/>
<path d="M168.675 45.9845C169.125 46.4355 169.804 46.4355 170.255 45.9845C170.707 45.5335 170.707 44.8569 170.255 44.406C169.804 43.955 169.125 43.955 168.675 44.406C168.222 44.8569 168.222 45.5335 168.675 45.9845Z" fill="#EE623F"/>
<path d="M164.612 51.8477C163.483 51.8477 162.58 50.9457 162.58 49.8182C162.58 48.6907 163.483 47.7887 164.612 47.7887C165.741 47.7887 166.645 48.6907 166.645 49.8182C166.645 50.9457 165.741 51.8477 164.612 51.8477ZM164.612 48.0142C163.709 48.0142 163.032 48.6907 163.032 49.5928C163.032 50.4948 163.709 51.1712 164.612 51.1712C165.515 51.1712 166.194 50.4948 166.194 49.5928C166.194 48.6907 165.515 48.0142 164.612 48.0142Z" fill="#EE623F"/>
<path d="M165.294 49.8184C165.294 49.3673 165.068 49.1418 164.617 49.1418C164.165 49.1418 163.939 49.3673 163.939 49.8184C163.939 50.2693 164.165 50.4948 164.617 50.4948C165.068 50.4948 165.294 50.0438 165.294 49.8184Z" fill="#EE623F"/>
<path d="M142.485 18.4738V18.2484H128.936L121.934 30.2L128.936 42.1515H142.485L149.486 30.2L142.485 18.2484V18.4738L142.259 18.6994L149.035 30.2L142.259 41.7004H129.16L122.612 30.2L129.16 18.6994H142.485V18.4738Z" fill="#EE623F"/>
<path d="M144.961 38.5432C145.585 38.5432 146.091 38.0383 146.091 37.4157C146.091 36.793 145.585 36.2882 144.961 36.2882C144.337 36.2882 143.832 36.793 143.832 37.4157C143.832 38.0383 144.337 38.5432 144.961 38.5432Z" fill="#EE623F"/>
<path d="M126.894 29.9743H117.41V30.4252H126.894V29.9743Z" fill="#EE623F"/>
<path d="M126.892 31.3272C127.516 31.3272 128.021 30.8225 128.021 30.1997C128.021 29.5771 127.516 29.0722 126.892 29.0722C126.269 29.0722 125.763 29.5771 125.763 30.1997C125.763 30.8225 126.269 31.3272 126.892 31.3272Z" fill="#EE623F"/>
<path d="M117.411 31.3272C118.035 31.3272 118.54 30.8225 118.54 30.1997C118.54 29.5771 118.035 29.0722 117.411 29.0722C116.788 29.0722 116.282 29.5771 116.282 30.1997C116.282 30.8225 116.788 31.3272 117.411 31.3272Z" fill="#EE623F"/>
<path d="M122.609 31.3272C123.233 31.3272 123.739 30.8225 123.739 30.1997C123.739 29.5771 123.233 29.0722 122.609 29.0722C121.986 29.0722 121.48 29.5771 121.48 30.1997C121.48 30.8225 121.986 31.3272 122.609 31.3272Z" fill="#EE623F"/>
<path d="M151.57 9.28149L143.107 17.7324L143.427 18.0513L151.89 9.6004L151.57 9.28149Z" fill="#EE623F"/>
<path d="M150.837 10.3558C151.288 10.8068 151.967 10.8068 152.418 10.3558C152.87 9.90483 152.87 9.22832 152.418 8.77733C151.967 8.32632 151.288 8.32632 150.837 8.77733C150.385 9.22832 150.385 9.90483 150.837 10.3558Z" fill="#EE623F"/>
<path d="M142.252 18.925C142.703 19.3761 143.381 19.3761 143.832 18.925C144.284 18.4741 144.284 17.7975 143.832 17.3466C143.381 16.8955 142.703 16.8955 142.252 17.3466C141.8 17.7975 141.8 18.4741 142.252 18.925Z" fill="#EE623F"/>
<path d="M147.222 14.1893C147.675 14.6404 148.352 14.6404 148.804 14.1893C149.255 13.7384 149.255 13.0618 148.804 12.6108C148.352 12.1598 147.675 12.1598 147.222 12.6108C146.771 13.0618 146.771 13.7384 147.222 14.1893Z" fill="#EE623F"/>
<path d="M132.49 38.3534L124.187 46.6449L124.506 46.9638L132.81 38.6724L132.49 38.3534Z" fill="#EE623F"/>
<path d="M131.867 39.2198C132.32 39.6709 132.997 39.6709 133.449 39.2198C133.9 38.7689 133.9 38.0923 133.449 37.6414C132.997 37.1903 132.32 37.1903 131.867 37.6414C131.416 38.0923 131.416 38.7689 131.867 39.2198Z" fill="#EE623F"/>
<path d="M128.253 42.828C128.704 43.2791 129.383 43.2791 129.834 42.828C130.286 42.3771 130.286 41.7005 129.834 41.2496C129.383 40.7985 128.704 40.7985 128.253 41.2496C127.801 41.7005 127.801 42.6026 128.253 42.828Z" fill="#EE623F"/>
<path d="M124.186 48.6906C123.057 48.6906 122.154 47.7886 122.154 46.6611C122.154 45.5336 123.057 44.6316 124.186 44.6316C125.315 44.6316 126.219 45.5336 126.219 46.6611C126.219 47.7886 125.541 48.6906 124.186 48.6906ZM124.186 45.0827C123.283 45.0827 122.606 45.7591 122.606 46.6611C122.606 47.5631 123.283 48.2397 124.186 48.2397C125.09 48.2397 125.767 47.5631 125.767 46.6611C125.767 45.7591 125.315 45.0827 124.186 45.0827Z" fill="#EE623F"/>
<path d="M124.188 47.3375C124.562 47.3375 124.866 47.0346 124.866 46.661C124.866 46.2874 124.562 45.9844 124.188 45.9844C123.814 45.9844 123.511 46.2874 123.511 46.661C123.511 47.0346 123.814 47.3375 124.188 47.3375Z" fill="#EE623F"/>
<path d="M68.2254 123.128V122.903H54.6753L47.6743 134.854L54.6753 146.807H68.4513L75.2263 134.854L68.4513 122.903H68.2254V123.128L67.9996 123.354L74.7748 134.854L67.9996 146.355H54.9011L48.3518 134.854L54.9011 123.354H68.2254V123.128Z" fill="#EE623F"/>
<path d="M68.0001 147.483C68.6237 147.483 69.1292 146.978 69.1292 146.355C69.1292 145.733 68.6237 145.228 68.0001 145.228C67.3765 145.228 66.8709 145.733 66.8709 146.355C66.8709 146.978 67.3765 147.483 68.0001 147.483Z" fill="#EE623F"/>
<path d="M58.5116 147.483C59.1352 147.483 59.6408 146.978 59.6408 146.355C59.6408 145.733 59.1352 145.228 58.5116 145.228C57.888 145.228 57.3824 145.733 57.3824 146.355C57.3824 146.978 57.888 147.483 58.5116 147.483Z" fill="#EE623F"/>
<path d="M54.6707 148.385C53.5415 148.385 52.6382 147.483 52.6382 146.355C52.6382 145.228 53.5415 144.326 54.6707 144.326C55.7999 144.326 56.7033 145.228 56.7033 146.355C56.7033 147.483 55.7999 148.385 54.6707 148.385ZM54.6707 144.551C53.7673 144.551 53.0898 145.228 53.0898 146.13C53.0898 147.031 53.7673 147.709 54.6707 147.709C55.574 147.709 56.2516 147.031 56.2516 146.13C56.2516 145.228 55.574 144.551 54.6707 144.551Z" fill="#EE623F"/>
<path d="M55.35 146.355C55.35 145.904 55.1242 145.679 54.6726 145.679C54.2209 145.679 53.9951 145.904 53.9951 146.355C53.9951 146.805 54.2209 147.031 54.6726 147.031C54.8983 147.031 55.35 146.581 55.35 146.355Z" fill="#EE623F"/>
<path d="M70.7114 143.198C71.3351 143.198 71.8406 142.693 71.8406 142.07C71.8406 141.448 71.3351 140.943 70.7114 140.943C70.0878 140.943 69.5822 141.448 69.5822 142.07C69.5822 142.693 70.0878 143.198 70.7114 143.198Z" fill="#EE623F"/>
<path d="M78.8429 134.629H69.3577V135.08H78.8429V134.629Z" fill="#EE623F"/>
<path d="M79.0651 135.982C79.6887 135.982 80.1942 135.477 80.1942 134.854C80.1942 134.232 79.6887 133.727 79.0651 133.727C78.4413 133.727 77.9358 134.232 77.9358 134.854C77.9358 135.477 78.4413 135.982 79.0651 135.982Z" fill="#EE623F"/>
<path d="M69.3546 135.982C69.9782 135.982 70.4837 135.477 70.4837 134.854C70.4837 134.232 69.9782 133.727 69.3546 133.727C68.7308 133.727 68.2253 134.232 68.2253 134.854C68.2253 135.477 68.7308 135.982 69.3546 135.982Z" fill="#EE623F"/>
<path d="M74.5502 135.982C75.1738 135.982 75.6794 135.477 75.6794 134.854C75.6794 134.232 75.1738 133.727 74.5502 133.727C73.9266 133.727 73.4211 134.232 73.4211 134.854C73.4211 135.477 73.9266 135.982 74.5502 135.982Z" fill="#EE623F"/>
<path d="M46.3531 114.643L46.0338 114.961L54.3388 123.253L54.6581 122.934L46.3531 114.643Z" fill="#EE623F"/>
<path d="M46.996 115.462C47.4477 115.01 47.4477 114.334 46.996 113.883C46.5445 113.432 45.8669 113.432 45.4152 113.883C44.9636 114.334 44.9636 115.01 45.4152 115.462C45.8669 115.912 46.5445 115.912 46.996 115.462Z" fill="#EE623F"/>
<path d="M55.5792 124.031C56.0308 123.58 56.0308 122.903 55.5792 122.452C55.1275 122.001 54.4499 122.001 53.9982 122.452C53.5467 122.903 53.5467 123.58 53.9982 124.031C54.4499 124.482 55.1275 124.482 55.5792 124.031Z" fill="#EE623F"/>
<path d="M50.8349 119.295C51.2866 118.844 51.2866 118.168 50.8349 117.717C50.3832 117.266 49.7058 117.266 49.2541 117.717C48.8024 118.168 48.8024 118.844 49.2541 119.295C49.7058 119.746 50.3832 119.746 50.8349 119.295Z" fill="#EE623F"/>
<path d="M68.4568 124.932C67.3277 124.932 66.4243 124.03 66.4243 122.903C66.4243 121.775 67.3277 120.873 68.4568 120.873C69.5861 120.873 70.4894 121.775 70.4894 122.903C70.4894 124.03 69.5861 124.932 68.4568 124.932ZM68.4568 121.099C67.5535 121.099 66.876 121.775 66.876 122.677C66.876 123.579 67.5535 124.256 68.4568 124.256C69.3602 124.256 70.0377 123.579 70.0377 122.677C70.0377 121.775 69.3602 121.099 68.4568 121.099Z" fill="#EE623F"/>
<path d="M69.1314 122.903C69.1314 122.452 68.9055 122.226 68.4538 122.226C68.0021 122.226 67.7762 122.452 67.7762 122.903C67.7762 123.354 68.0021 123.579 68.4538 123.579C68.6797 123.579 69.1314 123.128 69.1314 122.903Z" fill="#EE623F"/>
</g>
</g>
</svg>
