<svg width="153" height="75" viewBox="0 0 153 75" fill="none" xmlns="http://www.w3.org/2000/svg">
<path d="M73.7692 11.9615C72.7699 10.9635 70.7789 11.3295 69.3265 12.7815C69.201 12.9074 69.0851 13.0355 68.9775 13.1694L59.1567 23.5908C58.4405 22.7309 57.6804 21.8669 56.8785 21.0049L73.9148 4.96588L73.9068 4.95787C75.3212 3.50985 75.6704 1.55195 74.6808 0.562115C73.6795 -0.435922 71.6905 -0.0699122 70.2383 1.38211C70.1125 1.50805 69.9969 1.6361 69.8891 1.77006L54.2711 18.3451C53.3535 17.4591 52.4238 16.6131 51.4903 15.8092L62.2867 5.6458L62.2786 5.63779C63.6931 4.18997 64.0421 2.23206 63.0526 1.24204C62.0533 0.244194 60.0623 0.610013 58.6099 2.06203C58.4844 2.18798 58.3687 2.31603 58.259 2.44999L48.1807 13.1454C40.9432 7.73367 33.971 5.16186 30.6537 7.16977C28.7066 8.34776 28.3336 10.9115 29.289 14.2434C27.1605 13.7793 25.373 13.8814 24.1122 14.6434C20.2422 16.9872 22.5902 24.8068 29.2472 33.2403L0 64.2886L30.8769 35.2201C31.6032 36.0642 32.3692 36.908 33.1751 37.7521C33.6499 38.2499 34.1308 38.736 34.6134 39.2119L11.6303 63.6025L36.0637 40.5998C37.3563 41.7997 38.6651 42.9197 39.9717 43.9517L10.7185 75L42.0423 45.5136C48.9746 50.5014 55.5439 52.8052 58.7338 50.8754C60.6808 49.6974 61.0537 47.1336 60.0982 43.8017C62.2267 44.2656 64.0161 44.1637 65.275 43.4017C68.814 41.2599 67.1541 34.5383 61.756 26.9546L73.0051 16.3632L72.9971 16.3551C74.4116 14.9073 74.7608 12.9494 73.7713 11.9594L73.7692 11.9615ZM58.6977 24.0788L52.3799 30.7845C51.5382 29.7846 50.6384 28.7806 49.6809 27.7807L56.4356 21.4209C57.2455 22.3069 57.9997 23.1948 58.6977 24.0769V24.0788ZM47.3348 36.1382C46.1499 35.2902 44.959 34.3501 43.7859 33.3323L49.24 28.1967C50.2094 29.2165 51.1073 30.2425 51.9292 31.2623L47.3348 36.1382ZM54.0797 34.1803C55.7433 36.658 56.9163 39.0319 57.5348 41.1219C55.3164 40.6519 52.7511 39.5539 50.0799 37.944L54.0797 34.1782V34.1803ZM43.7003 23.1488C44.8252 24.0309 45.9465 24.9907 47.0457 26.0187L41.833 31.5503C41.2964 31.0364 40.7676 30.5065 40.2451 29.9605C39.6346 29.3226 39.0561 28.6806 38.5034 28.0406L43.7003 23.1488ZM36.5007 25.5506C34.1985 22.4729 32.6085 19.4891 31.8524 16.9292C34.4718 17.4852 37.5739 18.9151 40.7638 21.027L36.5007 25.5506ZM53.8503 18.7951L47.4686 25.5688C46.3953 24.5448 45.308 23.5729 44.2168 22.6609L50.9976 16.2773C51.959 17.0612 52.9125 17.9031 53.8522 18.7932L53.8503 18.7951ZM33.2468 9.88756C36.1576 8.12773 41.7611 9.8076 47.6102 13.7574L41.3462 20.4049C37.8311 17.8112 34.3901 15.8952 31.4116 14.8552C31.1384 12.5815 31.7089 10.8175 33.2468 9.88756ZM26.7056 17.3591C27.6193 16.8072 28.8003 16.5952 30.1688 16.6853C31.3838 19.5311 33.3707 22.7529 36.0179 26.0607L29.7379 32.7264C24.6748 25.8327 23.2285 19.4651 26.7056 17.3612V17.3591ZM33.7037 37.4301C32.8619 36.5481 32.0759 35.6621 31.3439 34.7782L38.0487 28.4665C38.5832 29.0705 39.1398 29.6744 39.7163 30.2765C40.277 30.8624 40.8436 31.4345 41.4139 31.9903L35.0303 38.764C34.5836 38.328 34.1407 37.8841 33.7037 37.428V37.4301ZM36.5245 40.1659L43.3131 33.7742C44.4703 34.8161 45.6372 35.7962 46.8003 36.7021L40.4964 43.3918C39.1658 42.4237 37.8311 41.3438 36.5226 40.1639L36.5245 40.1659ZM56.1383 48.1595C53.3814 49.8273 48.2067 48.4055 42.6948 44.8936L49.3776 38.602C52.4219 40.7118 55.3723 42.2858 57.9716 43.1918C58.2449 45.4656 57.6745 47.2296 56.1364 48.1595H56.1383ZM62.6796 40.6859C61.7659 41.2379 60.585 41.4498 59.2164 41.3599C58.205 38.9921 56.6591 36.3642 54.6441 33.6424L61.1516 27.5166C64.9638 33.5303 65.7836 38.806 62.6796 40.684V40.6859Z" fill="#EE623F"/>
<path d="M152.237 30.3145C152.001 30.3145 151.81 30.1225 151.81 29.8865V23.6069C151.81 23.3708 151.618 23.1788 151.383 23.1788H149.236C149.001 23.1788 148.809 23.3708 148.809 23.6069V29.8865C148.809 30.1225 148.618 30.3145 148.382 30.3145H142.878C142.643 30.3145 142.452 30.1225 142.452 29.8865V23.6189C142.452 23.3828 142.26 23.1909 142.025 23.1909H139.878C139.643 23.1909 139.451 23.3828 139.451 23.6189V30.5044C139.451 31.2003 139.722 31.8003 140.265 32.3003C140.808 32.8002 141.46 33.0502 142.224 33.0502H148.384C148.62 33.0502 148.811 33.2422 148.811 33.4783V36.0222C148.811 36.2581 149.003 36.45 149.238 36.45H151.385C151.62 36.45 151.812 36.2581 151.812 36.0222V33.4783C151.812 33.2422 152.003 33.0502 152.238 33.0502C152.474 33.0502 152.665 32.8583 152.665 32.6224V30.7423C152.665 30.5065 152.474 30.3145 152.238 30.3145H152.237ZM89.3255 23.1428H81.298C79.8258 23.1428 78.6228 24.3467 78.6228 25.8167H78.6308V36.0741C78.6308 36.3201 78.8203 36.5121 79.0697 36.5121H80.8672C81.1145 36.5121 81.3061 36.3241 81.3061 36.0741V34.2782C81.3061 34.0322 81.4956 33.8403 81.7448 33.8403H88.8927C89.14 33.8403 89.3314 34.0282 89.3314 34.2782V36.0741C89.3314 36.3201 89.5209 36.5121 89.7703 36.5121H91.5677C91.815 36.5121 92.0066 36.3241 92.0066 36.0741V25.8167C92.0066 24.3467 90.8017 23.1428 89.3314 23.1428H89.3255ZM89.3236 30.7265C89.3236 30.9725 89.1339 31.1645 88.8846 31.1645H81.737C81.4894 31.1645 81.298 30.9765 81.298 30.7265V26.2567C81.298 26.0107 81.4875 25.8188 81.737 25.8188H88.8846C89.132 25.8188 89.3236 26.0067 89.3236 26.2567V30.7265ZM104.616 23.1449H96.5989C95.1267 23.1449 93.9237 24.3488 93.9237 25.8188V28.0526C93.9237 28.2986 94.1132 28.4906 94.3626 28.4906H96.16C96.4073 28.4906 96.5989 28.3026 96.5989 28.0526V26.2567C96.5989 26.0107 96.7884 25.8188 97.0376 25.8188H104.186C104.433 25.8188 104.624 26.0067 104.624 26.2567V28.9306C104.624 29.1964 104.471 29.4464 104.203 29.5605L94.3406 33.6683C94.0733 33.7643 93.9197 34.0143 93.9197 34.2803V36.0762C93.9197 36.3222 94.1092 36.5142 94.3586 36.5142H106.857C107.104 36.5142 107.295 36.3262 107.295 36.0762V34.2803C107.295 34.0341 107.106 33.8422 106.857 33.8422H101.275C101.237 33.8223 101.217 33.8042 101.217 33.6882C101.229 33.6742 101.241 33.6683 101.255 33.6683L105.46 31.9304C106.569 31.4725 107.295 30.3843 107.295 29.1806V25.8188C107.295 24.3488 106.091 23.1449 104.62 23.1449H104.616ZM119.923 23.1428H111.896C110.424 23.1428 109.221 24.3467 109.221 25.8167V33.8403C109.221 35.3102 110.425 36.5142 111.896 36.5142H119.923C121.395 36.5142 122.598 35.3102 122.598 33.8403V25.8167C122.598 24.3467 121.393 23.1428 119.923 23.1428ZM119.921 33.4042C119.921 33.6502 119.732 33.8422 119.482 33.8422H112.334C112.087 33.8422 111.896 33.6542 111.896 33.4042V26.2586C111.896 26.0126 112.085 25.8207 112.334 25.8207H119.482C119.73 25.8207 119.921 26.0086 119.921 26.2586V33.4042ZM135.212 23.1468H127.195C125.722 23.1468 124.519 24.3507 124.519 25.8207V28.0545C124.519 28.3005 124.709 28.4925 124.958 28.4925H126.756C127.003 28.4925 127.195 28.3045 127.195 28.0545V26.2586C127.195 26.0126 127.384 25.8207 127.633 25.8207H134.781C135.028 25.8207 135.22 26.0086 135.22 26.2586V28.9325C135.22 29.1985 135.066 29.4485 134.799 29.5624L124.936 33.6702C124.669 33.7662 124.515 34.0162 124.515 34.2822V36.0781C124.515 36.3241 124.705 36.5161 124.954 36.5161H137.452C137.7 36.5161 137.891 36.3281 137.891 36.0781V34.2822C137.891 34.0362 137.702 33.8443 137.452 33.8443H131.871C131.833 33.8242 131.813 33.8063 131.813 33.6903C131.825 33.6763 131.837 33.6702 131.851 33.6702L136.056 31.9324C137.165 31.4744 137.891 30.3865 137.891 29.1825V25.8207C137.891 24.3507 136.686 23.1468 135.216 23.1468H135.212Z" fill="#EE623F"/>
</svg>
