<svg width="60" height="60" viewBox="0 0 60 60" fill="none" xmlns="http://www.w3.org/2000/svg">
<rect width="60" height="60" rx="30" fill="#EE623F"/>
<path d="M39.3142 18.2178C35.3769 19.8485 18.4943 26.8415 13.8297 28.7474C10.7014 29.9682 12.5327 31.1129 12.5327 31.1129C12.5327 31.1129 15.2031 32.0284 17.4924 32.7151C19.7814 33.4018 21.0022 32.6389 21.0022 32.6389L31.7606 25.3903C35.5756 22.7961 34.6601 24.9324 33.7443 25.8482C31.7606 27.8322 28.4796 30.9602 25.7327 33.4783C24.5119 34.5465 25.1222 35.462 25.6566 35.9199C27.6403 37.5986 33.0579 41.0322 33.3628 41.261C34.9747 42.4021 38.1452 44.0447 38.6275 40.5743L40.535 28.5951C41.1455 24.5513 41.7558 20.8124 41.8319 19.7442C42.0611 17.1497 39.3142 18.2178 39.3142 18.2178Z" fill="white"/>
</svg>
